<svg width="66" height="70" viewBox="0 0 66 70" fill="none" xmlns="http://www.w3.org/2000/svg">
<rect width="9.41116" height="3.93027" transform="matrix(-0.240838 -0.970565 0.987578 -0.157127 4.48969 59.5889)" fill="#755FFE" fill-opacity="0.6"/>
<path d="M63.2979 15.488L60.3383 16.8123L57.4577 15.1198L57.5367 12.1031L60.4963 10.7788L63.3769 12.4713L63.2979 15.488Z" fill="#03A3F5" fill-opacity="0.75"/>
<path d="M15.7634 54.2705L19.0042 54.3734L19.0415 57.2777L15.8006 57.1747L15.7634 54.2705Z" fill="#FFED36"/>
<path d="M28.9508 14.5012L28.0122 14.3877L27.3384 14.9493L27.4211 14.1121L26.7624 13.4809L27.701 13.5945L28.3748 13.0328L28.2921 13.87L28.9508 14.5012Z" fill="#DCBCFA" fill-opacity="0.6"/>
<path d="M57.8622 38.1684L56.8221 36.9601L55.2641 37.4207L56.1792 36.2133L55.1391 35.005L56.7449 35.4671L57.66 34.2597L57.7372 35.7527L59.343 36.2148L57.785 36.6754L57.8622 38.1684Z" fill="#F62584"/>
<path d="M22.9417 22.1415L21.1591 22.1213L20.0452 23.3221L19.984 21.723L18.591 20.6667L20.3736 20.6869L21.4875 19.4861L21.5487 21.0852L22.9417 22.1415Z" fill="#F62584" fill-opacity="0.45"/>
<path d="M40.9676 43.2822L40.9513 41.8531L39.3568 41.7544L40.7297 41.0852L39.9631 39.8004L41.3524 40.5604L42.1803 39.3742L42.1966 40.8033L43.7911 40.902L42.4181 41.5711L43.1847 42.856L41.7954 42.096L40.9676 43.2822Z" fill="#9AF5FC" fill-opacity="0.9"/>
<path d="M28.1185 36.9402L28.4026 39.1321L30.8052 39.6648L28.5782 40.4868L28.8623 42.6788L27.2018 40.9949L24.9748 41.8169L26.1756 39.9541L24.5151 38.2702L26.9177 38.8029L28.1185 36.9402Z" fill="#DCBCFA" fill-opacity="0.35"/>
<path d="M36.6624 21.7928L37.5023 21.7678L37.4622 21.0123L37.9405 21.6537L38.6493 21.2755L38.2877 21.9419L39.0366 22.3192L38.1967 22.3442L38.2369 23.0997L37.7586 22.4583L37.0498 22.8366L37.4114 22.1701L36.6624 21.7928Z" fill="#BA3E03" fill-opacity="0.45"/>
</svg>
